<svg xmlns="http://www.w3.org/2000/svg" viewBox="0 0 288 81.96"><defs><style>.cls-1{fill:#22593a;}.cls-2{fill:#00a448;}.cls-3{fill:#117f41;}</style></defs><title>Verycheck_Logotipo-Color-rgb</title><g id="Logo_Artwork" data-name="Logo Artwork"><path class="cls-1" d="M56.1,68.62c-8.52,0-14.64-5.71-14.64-14.9s6-14.9,14.64-14.9c8.46,0,14.43,5.61,14.43,14.43a22.36,22.36,0,0,1-.16,2.6H50.28c.31,3.79,2.65,5.56,5.5,5.56a4.72,4.72,0,0,0,4.62-2.8h9.45C68.45,64.26,63.31,68.62,56.1,68.62ZM50.33,50.91H61.44c0-3.17-2.49-5-5.45-5A5.49,5.49,0,0,0,50.33,50.91Z"/><path class="cls-1" d="M84.07,68.2H75.19v-29h8.88v4.83a10.8,10.8,0,0,1,9.09-5.14v9.4H90.72c-4.21,0-6.65,1.45-6.65,6.44Z"/><path class="cls-1" d="M119.47,39.23h9.61L110.9,82h-9.55L108,67.22l-11.79-28h9.92l6.7,18.12Z"/><path class="cls-1" d="M143.17,38.81c7.27,0,12.41,4,13.91,10.9h-9.45A4.58,4.58,0,0,0,143,46.4c-3.17,0-5.35,2.49-5.35,7.32S139.84,61,143,61a4.51,4.51,0,0,0,4.62-3.32h9.45c-1.51,6.7-6.65,10.9-13.91,10.9-8.52,0-14.54-5.71-14.54-14.9S134.65,38.81,143.17,38.81Z"/><path class="cls-1" d="M161.65,29.78h8.88V43.12a10.68,10.68,0,0,1,8.93-4.21c6.59,0,11,4.57,11,12.36V68.2h-8.83V52.47c0-3.95-2.18-6.13-5.56-6.13s-5.56,2.18-5.56,6.13V68.2h-8.88Z"/><path class="cls-1" d="M208.82,68.62c-8.52,0-14.64-5.71-14.64-14.9s6-14.9,14.64-14.9c8.46,0,14.44,5.61,14.44,14.43a22.51,22.51,0,0,1-.16,2.6H203c.31,3.79,2.65,5.56,5.5,5.56a4.72,4.72,0,0,0,4.62-2.8h9.45C221.18,64.26,216,68.62,208.82,68.62Zm-5.76-17.71h11.11c0-3.17-2.49-5-5.45-5A5.49,5.49,0,0,0,203.06,50.91Z"/><path class="cls-1" d="M259.29,29.78h8.88V51l8.78-11.79h11l-12,14.54L288,68.2H277l-8.83-12.15V68.2h-8.88Z"/><polygon class="cls-2" points="30.02 67.22 30.03 67.22 30.08 67.06 30.02 67.22"/><polygon class="cls-2" points="14.63 29.68 0 29.68 10.74 59.95 22.35 43.55 14.63 29.68"/><polygon class="cls-3" points="58.17 0 53.15 0.03 22.35 43.55 10.74 59.95 10.73 59.96 13.3 67.22 13.31 67.22 30.02 67.22 30.08 67.06 58.17 0"/><path class="cls-1" d="M240.8,38.81c7.27,0,12.41,4,13.92,10.9h-9.45a4.58,4.58,0,0,0-4.62-3.32c-3.17,0-5.35,2.49-5.35,7.32S237.48,61,240.64,61a4.51,4.51,0,0,0,4.62-3.32h9.45c-1.51,6.7-6.65,10.9-13.92,10.9-8.52,0-14.54-5.71-14.54-14.9S232.28,38.81,240.8,38.81Z"/></g></svg>